<?xml version="1.0" encoding="utf-8"?>
<!-- Generator: Adobe Illustrator 20.0.0, SVG Export Plug-In . SVG Version: 6.00 Build 0)  -->
<svg version="1.1" id="logo_contour_fin" xmlns="http://www.w3.org/2000/svg" xmlns:xlink="http://www.w3.org/1999/xlink" x="0px"
	 y="0px" width="2097.6px" height="1133.9px" viewBox="0 0 2097.6 1133.9" enable-background="new 0 0 2097.6 1133.9"
	 xml:space="preserve">
<title>LOGO_FDJ_RVB</title>
<g>
	<path fill="#FFFFFF" d="M1578.4,1040.4c-35.8,0.1-70.1-14.1-95.3-39.5l-99.4-99.4c-6.5-6.5-15.4-10.2-24.7-10.2H181.4
		c-74.3,0-134.8-60.5-134.8-134.8V377.3c0-74.3,60.4-134.8,134.8-134.8H1359c9.2,0,18.1-3.7,24.6-10.2l99.4-99.4
		c52.7-52.6,138-52.6,190.7,0l338.7,338.7c52.5,52.6,52.5,138.1,0,190.7L1673.7,1001C1648.5,1026.3,1614.1,1040.5,1578.4,1040.4
		L1578.4,1040.4z"/>
	
		<radialGradient id="SVGID_1_" cx="-2128.9097" cy="777.5842" r="3845.46" fx="-4293.4565" fy="791.9323" gradientTransform="matrix(0.1694 -1.481648e-02 8.715575e-03 9.961947e-02 1016.6204 291.2177)" gradientUnits="userSpaceOnUse">
		<stop  offset="0" style="stop-color:#00A0E1"/>
		<stop  offset="0.19" style="stop-color:#0198DA"/>
		<stop  offset="0.49" style="stop-color:#0384C8"/>
		<stop  offset="0.84" style="stop-color:#0662AB"/>
		<stop  offset="1" style="stop-color:#08509B"/>
	</radialGradient>
	<path fill="url(#SVGID_1_)" d="M1986.5,496.5l-338.8-338.8c-38.9-38.9-102-39-140.9-0.1l-0.1,0.1l-119.8,119.9H181.4
		c-55.1,0-99.8,44.7-99.8,99.8l0,0v379.2c0,55.1,44.7,99.8,99.8,99.8l0,0h1205.5l119.9,119.9c38.8,38.9,101.8,39,140.7,0.2
		c0.1-0.1,0.1-0.1,0.2-0.2l338.8-338.8c38.9-38.8,39-101.8,0.2-140.7C1986.6,496.6,1986.5,496.5,1986.5,496.5z"/>
	<path fill="#063C88" d="M1153.7,482.3c-46.4,46.5-46.4,121.8,0,168.4l110.1,110.1c43.4,43.4,102.2,67.8,163.6,67.8h307.4v-525
		h-306.6c-61.4,0-120.2,24.4-163.6,67.8L1153.7,482.3z"/>
	
		<linearGradient id="SVGID_2_" gradientUnits="userSpaceOnUse" x1="2000" y1="233.2185" x2="1117.77" y2="233.2185" gradientTransform="matrix(1 0 0 1 3.142143e-03 333.2815)">
		<stop  offset="0" style="stop-color:#00A0E1"/>
		<stop  offset="1.000000e-02" style="stop-color:#009EDF"/>
		<stop  offset="0.16" style="stop-color:#0381C6"/>
		<stop  offset="0.33" style="stop-color:#056CB3"/>
		<stop  offset="0.5" style="stop-color:#075CA6"/>
		<stop  offset="0.71" style="stop-color:#08539D"/>
		<stop  offset="1" style="stop-color:#08509B"/>
	</linearGradient>
	<path fill="url(#SVGID_2_)" d="M1167.7,496.3L1507.1,157c38.7-38.7,101.6-38.7,140.3,0l339.4,339.4c38.7,38.7,38.7,101.6,0,140.3
		L1647.4,976c-38.7,38.7-101.6,38.7-140.3,0l-339.4-339.4C1129,597.9,1129,535.1,1167.7,496.3z"/>
	<path fill="#08509B" d="M807.6,539.7c0,97-71.6,192.2-174,209.1c-21.6,3.5-47.4,5.3-77.5,5.3H438.9c0,0,39.3-169.7,45.1-194.9
		c7.2-31.2,52.4-54.3,103.4-54.3l-43,184.7h32.2c52,0,92.8-18.6,117.7-65.9c12.2-23.1,18.3-48.4,18.3-75.8
		c0-16.8-7.5-40.4-21.6-53.9c-17.2-16.5-34.9-23.7-74.9-23.7H314.9l-19.6,85h107.4l-15.6,68H279.6L249.5,754h-90.6L240,402.4h383.8
		c62.8,0,103,9.5,130.6,28.8C791.5,456.8,807.6,493.6,807.6,539.7z M896,398.4l-15.6,68H963l-30.5,133
		c-19.1,83.6-65.3,101.2-113.5,70L770.6,726c64.9,55.1,212.7,44.7,245.4-95.8l53.6-231.8L896,398.4z"/>
	<path fill="#FFFFFF" d="M823.6,524.7c0,97-71.6,192.2-174,209.1c-21.6,3.5-47.4,5.3-77.5,5.3H454.9c0,0,39.3-169.7,45.1-194.9
		c7.2-31.2,52.4-54.3,103.4-54.3l-43,184.7h32.2c52,0,92.8-18.6,117.7-65.9c12.2-23.1,18.3-48.4,18.3-75.8
		c0-16.8-7.5-40.4-21.6-53.9c-17.2-16.5-34.9-23.7-74.9-23.7H330.9l-19.6,85h107.4l-15.6,68H295.6L265.5,739h-90.6L256,387.4h383.8
		c62.8,0,103,9.5,130.6,28.8C807.5,441.8,823.6,478.6,823.6,524.7z M908,387.4l-15.6,68H975l-30.5,133
		c-19.1,83.6-65.3,101.2-113.5,70L782.6,715c64.9,55.1,212.7,44.7,245.4-95.8l53.6-231.8L908,387.4z"/>
	<path fill="#FFFFFF" d="M1853.5,464.4c-1.9-5.8-0.5-97.5-66-106.1c-43-5.7-81.7,23.1-111.2,60.2l131.1,63.1l-62.8,131.1
		c47.2,10.2,96.3,8.1,126.2-24.2C1915.4,539.8,1855.8,470.1,1853.5,464.4z M1596.9,593c-26.9,12.4-114.7,183.5-40.7,253.1
		c48.2,45.3,118.3-13.7,124-15.9c5.9-1.9,97.7,0.3,106.9-65.2C1801.3,664.3,1625.7,585.8,1596.9,593z M1575.3,531.6
		c26.9-12.4,114.9-183.6,40.8-253.2c-48.2-45.2-118.4,13.8-124.1,16c-5.9,1.9-97.5-0.3-106.8,65.1
		C1371,460.1,1546.6,538.7,1575.3,531.6L1575.3,531.6z M1554.2,572.3c-12.5-26.9-183.6-114.7-253.2-40.6
		c-45.2,48.2,13.7,118.3,16,124c1.8,5.8-0.3,97.7,65.1,106.9C1482.8,776.7,1561.3,601,1554.2,572.3L1554.2,572.3z M1404.5,836.3
		l35.4,35.4c23.2-24.2,52.8-65.6,64.5-127.2c-2.5-0.9-19-2.8-20.7-3.5C1466,788.5,1431.5,818.8,1404.5,836.3L1404.5,836.3z"/>
	
		<rect x="1631.6" y="453" transform="matrix(0.4324 -0.9017 0.9017 0.4324 495.2945 1826.5173)" fill="#E1001A" width="133.7" height="133.7"/>
	<polygon fill="#A70000" points="1787.6,488.4 1681.6,437.5 1681.6,437.5 1667.2,430.6 1667.2,430.6 1667.1,430.6 1660.2,444.8 
		1660.4,444.9 1609.4,551.2 1623.8,558 1674.7,451.8 1780.8,502.6 	"/>
</g>
</svg>
